<svg id="Layer_1" data-name="Layer 1" xmlns="http://www.w3.org/2000/svg" viewBox="0 0 201.87 74.7"><defs><style>.cls-1{font-size:23px;font-family:OratorStd, Orator Std;}.cls-2{stroke:#000;stroke-miterlimit:10;stroke-width:4px;}</style></defs><title>euro_pan_outfitters</title><text class="cls-1" transform="translate(52.9 48.41)">OUTFITTERS</text><path d="M289.37,183h3.19v22.72h-3.19Zm1.55,0H304v3H290.92Zm0,9.92h11.33v3H290.92Zm0,9.76H304v3H290.92Z" transform="translate(-243.98 -182.79)"/><path d="M311.85,205a6.58,6.58,0,0,1-2.73-2.89,10.32,10.32,0,0,1-.94-4.57V183h3.19v14.61a5.5,5.5,0,0,0,1.25,3.84,4.54,4.54,0,0,0,3.53,1.36,4.61,4.61,0,0,0,3.56-1.36,5.45,5.45,0,0,0,1.26-3.84V183h3.18v14.5a10.32,10.32,0,0,1-.93,4.57,6.55,6.55,0,0,1-2.74,2.89,8.85,8.85,0,0,1-4.33,1A8.76,8.76,0,0,1,311.85,205Z" transform="translate(-243.98 -182.79)"/><path d="M329.47,183h3.18v22.74h-3.18Zm1.39,10.09h7.75a3,3,0,0,0,1.61-.43,2.91,2.91,0,0,0,1.08-1.24,4.72,4.72,0,0,0,0-3.71,2.85,2.85,0,0,0-1.08-1.24,3,3,0,0,0-1.61-.44h-7.75v-3h7.62a7.13,7.13,0,0,1,3.46.81,5.65,5.65,0,0,1,2.31,2.31,7.65,7.65,0,0,1,0,6.89,5.83,5.83,0,0,1-2.32,2.3,7,7,0,0,1-3.45.82h-7.62Zm6.18,2.33,3.18-.72,5.81,11h-3.78Z" transform="translate(-243.98 -182.79)"/><path d="M353.65,204.94a7,7,0,0,1-2.8-2.94,9.36,9.36,0,0,1-1-4.4v-6.43a9.36,9.36,0,0,1,1-4.4,7,7,0,0,1,2.8-2.94,9,9,0,0,1,8.38,0,7,7,0,0,1,2.8,2.94,9.36,9.36,0,0,1,1,4.4v6.43a9.36,9.36,0,0,1-1,4.4,7,7,0,0,1-2.8,2.94,9,9,0,0,1-8.38,0Zm6.67-2.73a4.3,4.3,0,0,0,1.65-1.8,5.93,5.93,0,0,0,.59-2.7v-6.65a6,6,0,0,0-.59-2.7,4.27,4.27,0,0,0-1.65-1.79,5.13,5.13,0,0,0-5,0,4.27,4.27,0,0,0-1.65,1.79,6,6,0,0,0-.59,2.7v6.65a5.93,5.93,0,0,0,.59,2.7,4.3,4.3,0,0,0,1.65,1.8,5.2,5.2,0,0,0,5,0Z" transform="translate(-243.98 -182.79)"/><path d="M381.92,183h3.19v22.72h-3.19Zm1.64,10.87h7.26a3.41,3.41,0,0,0,1.82-.48,3.26,3.26,0,0,0,1.21-1.38,4.71,4.71,0,0,0,.43-2,4.81,4.81,0,0,0-.43-2.07,3.21,3.21,0,0,0-3-1.87h-7.26v-3h7.16a7.25,7.25,0,0,1,3.57.86,6.09,6.09,0,0,1,2.4,2.45,7.55,7.55,0,0,1,.85,3.66,7.47,7.47,0,0,1-.85,3.64,6,6,0,0,1-2.4,2.43,7.15,7.15,0,0,1-3.57.86h-7.16Z" transform="translate(-243.98 -182.79)"/><path d="M406.62,183h2.72l8.38,22.72h-3.44L408,187.42l-6.3,18.33h-3.43Zm-4.51,14.7h11.95v3H402.11Z" transform="translate(-243.98 -182.79)"/><path d="M421.15,183H424l11.11,17.56-.37.41V183h3.15v22.7H435l-11.08-17.3.38-.4v17.7h-3.16Z" transform="translate(-243.98 -182.79)"/><polygon class="cls-2" points="160.7 72.66 0.2 56.22 191.53 61.12 160.7 72.66"/></svg>